<?xml version="1.0" standalone="no"?>
<!DOCTYPE svg PUBLIC "-//W3C//DTD SVG 20010904//EN"
 "http://www.w3.org/TR/2001/REC-SVG-20010904/DTD/svg10.dtd">
<svg version="1.0" xmlns="http://www.w3.org/2000/svg"
 width="1472.000000pt" height="874.000000pt" viewBox="0 0 1472.000000 874.000000"
 preserveAspectRatio="xMidYMid meet">

<g transform="translate(0.000000,874.000000) scale(0.100000,-0.100000)"
fill="#000000" stroke="none">
<path d="M1950 4705 l0 -1765 5335 0 5335 0 0 1765 0 1765 -5335 0 -5335 0 0
-1765z m10580 1670 c0 -3 0 -756 0 -1675 l0 -1670 -1320 0 -1320 0 0 1673 c0
921 2 1676 4 1678 6 6 2636 0 2636 -6z m-8063 -332 c41 -87 95 -198 118 -248
24 -49 80 -166 125 -260 45 -93 99 -206 120 -250 21 -44 74 -156 119 -249 44
-93 81 -171 81 -175 0 -3 -78 -5 -172 -4 l-173 2 -69 135 -69 136 -329 0 -329
0 -65 -135 -65 -135 -175 0 -175 0 12 23 c7 12 12 23 11 24 -1 2 21 49 47 105
27 57 60 128 74 158 13 30 62 134 107 230 236 502 360 771 360 780 0 6 72 11
183 13 100 1 183 3 185 5 1 1 37 -69 79 -155z m1933 125 c41 -20 90 -69 116
-118 17 -31 19 -60 19 -275 0 -227 -1 -242 -22 -280 -39 -73 -110 -119 -199
-131 -30 -3 -54 -9 -54 -11 0 -3 20 -42 44 -87 89 -167 206 -393 206 -399 0
-4 -78 -7 -174 -7 l-174 0 -13 29 c-7 16 -17 27 -23 24 -5 -3 -6 -1 -2 6 4 6
4 17 -2 24 -5 7 -27 46 -49 87 -22 41 -71 132 -109 203 l-68 127 -163 0 -163
0 0 -248 c0 -137 -2 -251 -4 -253 -2 -2 -77 -3 -165 -1 l-161 3 0 654 c0 359
2 659 5 667 4 11 104 12 563 8 493 -4 561 -7 592 -22z m-3035 6 c22 -9 45 -16
52 -16 7 -1 10 -5 8 -9 -6 -8 25 -23 40 -20 5 2 7 0 3 -4 -4 -4 5 -26 20 -49
l27 -41 3 -244 3 -243 -26 -53 c-14 -29 -37 -60 -51 -69 -13 -9 -23 -20 -20
-24 2 -4 -3 -8 -12 -9 -9 -1 -42 -9 -72 -17 -45 -13 -118 -16 -422 -16 l-368
0 0 -250 0 -249 -160 -3 -160 -3 -2 668 -3 667 550 0 c469 -1 556 -3 590 -16z
m4715 -144 l0 -160 -250 0 -250 0 -2 -506 -3 -505 -157 -2 -158 -2 -2 505 -3
505 -252 3 -253 2 0 160 0 160 665 0 665 0 0 -160z m1412 150 c49 -14 117 -66
143 -110 17 -30 21 -56 23 -177 l4 -143 -161 0 -161 0 0 60 0 60 -365 0 -366
0 3 -92 3 -93 460 -5 c518 -6 500 -3 553 -82 l27 -41 3 -258 c2 -211 0 -264
-12 -293 -8 -20 -16 -40 -18 -44 -5 -18 -93 -80 -127 -91 -51 -15 -990 -15
-1044 0 -48 13 -112 70 -139 123 -18 35 -21 60 -22 169 l-1 128 159 0 159 0 1
-53 1 -53 363 -3 362 -2 0 90 0 90 -377 1 c-466 1 -539 6 -586 42 -19 15 -46
44 -59 64 -22 37 -23 43 -23 283 0 213 2 251 18 292 22 57 91 122 145 136 51
14 986 15 1034 2z m-7060 -1771 l-3 -309 216 0 216 0 -1 311 -1 311 98 0 98 0
0 -360 c0 -350 -1 -361 -21 -389 -11 -15 -36 -38 -54 -50 -32 -23 -38 -23
-339 -23 l-307 0 -40 26 c-24 15 -46 40 -52 58 -8 21 -12 147 -12 381 0 193 0
352 0 355 0 3 46 4 102 2 l103 -3 -3 -310z m1011 273 c18 -19 47 -51 65 -70
17 -19 32 -36 32 -39 0 -4 270 -323 307 -363 12 -13 13 23 13 248 l-1 264 95
-1 c53 0 99 0 104 -1 4 0 6 -184 4 -410 l-2 -410 -113 0 -113 0 -61 73 c-34
39 -74 86 -90 103 -15 17 -40 46 -56 64 -98 121 -161 189 -170 183 -6 -3 -7
-1 -3 5 4 6 -9 28 -28 49 l-35 38 -1 -254 c0 -140 -2 -257 -4 -259 -3 -2 -47
-4 -100 -5 l-96 -2 -2 413 c-2 228 -2 414 -1 415 1 1 52 1 113 -1 l112 -3 31
-37z m945 -271 l2 -311 275 0 275 0 0 -100 0 -100 -375 0 -375 0 -2 411 c-2
226 -2 411 -1 412 1 1 46 1 100 0 l98 -1 3 -311z m882 -97 l1 -409 -101 -3
-100 -3 0 410 0 410 98 3 c53 2 98 3 100 2 1 -1 2 -185 2 -410z m1198 -3 l2
-411 -100 0 -100 0 0 253 c0 157 -4 247 -9 237 -6 -8 -7 -18 -4 -24 3 -5 1 -6
-5 -2 -6 3 -23 -10 -39 -31 -15 -21 -30 -40 -33 -43 -29 -28 -88 -109 -83
-114 3 -3 1 -6 -5 -6 -10 0 -71 -73 -107 -128 -5 -8 -19 -25 -31 -38 l-21 -23
-51 67 c-28 37 -59 76 -69 87 -10 11 -50 63 -90 115 -40 52 -84 108 -98 124
l-25 29 0 -251 0 -251 -96 -3 c-53 -2 -98 -1 -100 1 -2 2 -4 188 -4 413 l0
408 103 0 c56 0 107 -4 113 -8 6 -4 29 -32 51 -62 22 -30 49 -65 59 -76 20
-23 34 -40 135 -173 36 -47 69 -86 74 -86 11 0 214 257 214 273 1 6 5 12 10
12 5 0 30 28 55 63 l46 62 103 -2 102 -1 3 -411z m332 -2 l0 -409 -100 0 -100
0 -2 410 -3 409 95 3 c52 2 98 2 103 0 4 -2 7 -187 7 -413z m952 318 c2 -54 1
-101 -1 -103 -2 -2 -73 -4 -158 -4 l-153 0 0 -309 0 -310 -96 -3 c-53 -2 -98
-1 -100 1 -2 2 -4 143 -4 313 l0 308 -154 0 -155 0 -3 100 -3 100 395 2 c217
2 403 3 412 3 14 1 17 -13 20 -98z m1873 42 l30 -29 3 -316 c3 -311 3 -315
-20 -355 -38 -68 -44 -69 -444 -69 l-354 0 0 410 0 410 343 2 c373 3 387 2
442 -53z m-915 -49 l0 -100 -412 2 -413 3 -3 98 -3 97 416 0 415 0 0 -100z m0
-310 l0 -100 -415 0 -415 0 0 100 0 100 415 0 415 0 0 -100z m0 -310 l0 -100
-414 0 -415 0 -3 95 c-2 57 1 97 7 99 6 3 193 5 418 5 l407 1 0 -100z m-5450
-574 c33 -99 60 -184 60 -189 0 -4 -12 -7 -28 -7 -24 0 -29 5 -42 53 l-15 52
-64 3 c-72 3 -75 1 -92 -65 -10 -38 -15 -43 -41 -43 -26 0 -29 3 -22 23 4 12
8 31 10 42 1 11 3 21 3 23 1 1 1 5 0 8 0 4 3 10 9 13 12 8 43 102 36 112 -3 5
-1 9 4 9 6 0 13 11 16 25 4 14 15 50 26 79 19 49 22 52 50 48 28 -4 31 -9 90
-186z m2963 181 c45 -19 62 -41 43 -56 -11 -10 -21 -9 -45 3 -39 21 -70 20
-100 -3 -19 -14 -22 -24 -17 -45 4 -15 11 -24 16 -21 6 3 10 2 10 -2 0 -5 31
-24 69 -43 78 -37 98 -65 88 -126 -11 -67 -89 -106 -172 -85 -26 6 -56 20 -67
30 -17 16 -18 22 -7 39 13 20 13 20 40 1 15 -11 46 -22 68 -25 34 -5 44 -2 66
20 26 26 26 27 9 56 -11 17 -37 37 -65 49 -26 12 -61 32 -77 46 -98 82 17 213
141 162z m1025 1 c6 -1 10 -4 7 -6 -3 -3 3 -10 11 -17 13 -9 14 -16 5 -33 -11
-21 -41 -21 -41 0 0 5 -4 6 -10 3 -5 -3 -10 -1 -10 4 0 14 -55 14 -81 1 -11
-6 -19 -21 -19 -35 0 -27 27 -58 42 -49 6 4 8 3 5 -3 -3 -5 19 -20 49 -33 62
-25 94 -65 94 -116 0 -39 -53 -90 -103 -99 -42 -8 -106 8 -141 36 -25 20 -26
22 -10 40 16 17 17 17 44 -3 59 -43 150 -27 150 27 0 32 -21 51 -95 84 -75 34
-100 66 -92 117 11 65 61 98 137 89 25 -3 51 -6 58 -7z m1632 -4 c0 -2 -15
-34 -32 -71 -18 -38 -33 -70 -33 -73 0 -3 -9 -18 -20 -35 -15 -21 -21 -50 -24
-112 -3 -80 -4 -83 -27 -83 -23 0 -24 3 -24 70 0 65 -4 78 -55 180 -30 60 -55
115 -55 120 0 6 12 10 26 8 25 -3 31 -12 93 -137 15 -31 28 -19 65 62 34 75
41 83 62 79 13 -2 24 -6 24 -8z m-5170 -19 c0 -25 -1 -25 -85 -25 l-85 0 0
-55 0 -55 70 0 c68 0 70 -1 70 -25 0 -23 -3 -24 -67 -27 l-68 -3 -3 -82 c-3
-81 -3 -83 -27 -83 l-25 0 0 190 0 190 110 0 110 0 0 -25z m221 -104 c24 -71
47 -128 51 -125 4 3 5 -1 3 -8 -3 -8 1 -33 10 -57 20 -58 19 -61 -13 -61 -24
0 -29 5 -42 53 l-15 52 -70 0 -70 0 -14 -52 c-13 -48 -16 -53 -42 -53 -16 0
-29 1 -29 3 0 2 11 36 25 76 13 41 22 77 19 82 -3 5 -1 9 3 9 8 0 51 118 57
154 6 33 29 56 56 56 28 0 30 -3 71 -129z m324 114 c38 -15 58 -51 53 -94 -3
-28 -30 -61 -50 -61 -7 -1 1 -7 17 -14 17 -7 33 -12 36 -10 3 2 6 -2 7 -9 1
-7 5 -28 8 -48 8 -49 -17 -96 -61 -115 -21 -8 -69 -14 -120 -14 l-85 0 0 190
0 190 80 0 c48 0 95 -6 115 -15z m344 1 c15 -8 33 -22 41 -30 13 -17 20 -106
8 -106 -5 0 -8 -5 -8 -12 0 -6 -14 -23 -30 -38 l-31 -27 41 -70 c22 -39 40
-73 40 -77 0 -3 -12 -6 -28 -6 -29 0 -36 9 -80 89 -31 59 -49 72 -80 58 -22
-10 -23 -16 -20 -79 l3 -68 -27 0 -28 0 0 190 0 190 85 0 c55 0 96 -5 114 -14z
m191 -176 l0 -190 -30 0 -30 0 0 190 0 190 30 0 30 0 0 -190z m150 103 l0 -88
43 50 c23 27 41 50 40 52 -9 10 72 73 92 73 14 0 25 -3 25 -6 0 -8 -93 -128
-103 -132 -4 -2 -1 -15 8 -28 21 -32 71 -120 92 -161 9 -18 19 -33 22 -33 4 0
33 81 65 180 l60 180 31 0 c36 0 38 -4 75 -122 13 -42 26 -75 30 -73 3 2 6 -9
6 -23 1 -15 7 -40 14 -57 7 -16 14 -34 15 -40 2 -5 6 -22 10 -37 7 -26 5 -28
-24 -28 -21 0 -31 5 -31 15 0 8 -7 33 -16 55 l-17 41 -65 -3 -65 -3 -17 -50
-17 -50 -54 -3 -54 -3 -35 61 c-19 34 -43 77 -53 97 l-18 35 -19 -24 c-11 -12
-24 -28 -30 -35 -6 -7 -10 -16 -9 -20 1 -4 1 -32 0 -60 -1 -52 -2 -53 -31 -53
l-30 0 0 190 0 190 30 0 30 0 0 -87z m655 77 c-3 -5 3 -31 14 -57 12 -26 29
-75 39 -108 10 -35 23 -60 32 -60 8 0 30 45 55 115 41 111 44 115 74 118 l31
3 0 -190 0 -191 -25 0 -25 0 -1 143 c-1 78 -4 131 -6 117 -3 -14 -8 -27 -12
-30 -4 -3 -22 -47 -40 -97 -30 -83 -36 -93 -58 -93 -13 0 -22 4 -19 8 3 5 -1
19 -8 33 -6 13 -18 45 -25 71 -7 26 -22 55 -32 64 -19 17 -19 14 -19 -99 l0
-117 -25 0 -25 0 0 190 0 190 41 0 c23 0 38 -4 34 -10z m817 -128 c2 -111 6
-143 21 -165 40 -62 125 -41 143 36 1 4 2 66 3 137 l1 130 31 0 30 0 -2 -137
c-2 -117 -5 -144 -22 -178 -12 -22 -20 -43 -19 -48 1 -4 -1 -6 -5 -5 -5 1 -25
-4 -46 -11 -42 -14 -99 -8 -135 15 -12 8 -28 12 -35 8 -9 -5 -9 -4 -1 5 9 10
8 19 -2 39 -10 19 -14 68 -14 170 l0 142 24 0 24 0 4 -138z m534 112 c16 -11
29 -32 31 -49 5 -34 -25 -95 -47 -95 -8 0 -2 -7 14 -15 70 -37 76 -109 13
-170 -18 -16 -38 -20 -124 -23 l-102 -4 -3 88 c-2 49 -2 136 0 192 l3 104 94
-4 c75 -2 99 -7 121 -24z m476 10 c2 -9 2 -95 0 -190 l-3 -174 -29 0 -30 0 0
190 0 190 29 0 c19 0 31 -6 33 -16z m283 -4 c31 -15 49 -33 66 -68 22 -41 24
-55 18 -112 -10 -97 -12 -103 -39 -128 -40 -38 -84 -52 -160 -52 l-70 0 0 190
0 190 72 0 c51 0 83 -6 113 -20z m215 -170 l0 -190 -25 0 -25 0 0 190 0 190
25 0 25 0 0 -190z m266 106 c15 -47 32 -82 37 -79 6 3 7 1 3 -5 -9 -14 14 -92
26 -92 6 0 8 -6 5 -12 -2 -7 2 -30 9 -52 8 -21 14 -42 14 -47 0 -14 -50 -11
-55 4 -2 6 -9 26 -15 42 -6 17 -11 32 -10 34 5 11 -31 21 -77 21 -58 0 -77
-16 -89 -78 -6 -27 -11 -32 -35 -32 -16 0 -29 2 -29 4 0 10 83 255 97 286 9
19 17 46 17 60 1 23 6 27 38 29 l37 2 27 -85z m366 59 c51 -39 44 -139 -13
-174 l-29 -18 18 -34 c10 -19 31 -56 46 -82 l29 -48 -34 3 c-28 3 -37 11 -68
63 -19 33 -38 63 -44 66 -5 3 -8 10 -8 15 1 13 -42 12 -51 -1 -4 -5 -8 -40 -8
-77 l0 -68 -30 0 -30 0 0 191 0 191 98 -4 c78 -2 102 -7 124 -23z"/>
<path d="M11834 5721 c-69 -42 -114 -129 -114 -218 0 -73 24 -126 78 -178 l42
-39 0 -556 0 -555 -41 -39 c-55 -51 -79 -106 -79 -181 0 -75 24 -130 80 -184
43 -41 114 -71 170 -71 67 0 190 63 190 96 0 7 6 14 14 17 18 7 46 91 46 140
0 66 -21 117 -72 172 l-48 53 0 554 0 554 36 35 c59 56 79 103 79 189 0 62 -4
82 -24 115 -33 55 -98 115 -123 115 -5 0 -8 -63 -8 -140 l0 -140 -90 0 -90 0
0 140 c0 77 -3 140 -7 140 -5 0 -22 -9 -39 -19z m200 -1663 l56 -32 0 -73 0
-72 -61 -34 c-59 -34 -61 -34 -92 -18 -86 44 -87 47 -87 127 l0 73 53 29 c28
16 57 30 64 31 6 0 36 -13 67 -31z"/>
<path d="M10779 5654 c-59 -18 -133 -83 -164 -145 -14 -27 -29 -79 -35 -116
-5 -37 -21 -142 -35 -233 -14 -91 -25 -168 -25 -172 0 -5 261 -8 580 -8 l580
0 0 121 c0 115 -1 123 -26 151 -84 101 -113 261 -68 381 l14 37 -388 -1 c-304
0 -397 -3 -433 -15z"/>
<path d="M10335 4821 c-84 -21 -158 -90 -181 -169 -23 -77 -16 -353 9 -399 25
-46 77 -104 88 -97 5 3 9 0 9 -5 0 -6 17 -19 38 -28 34 -16 91 -18 663 -21
l627 -3 30 53 c16 30 37 60 46 67 14 12 16 49 16 312 l0 299 -657 -1 c-362 -1
-671 -4 -688 -8z m284 -230 c121 -87 69 -271 -76 -271 -138 0 -203 159 -105
253 51 49 128 57 181 18z m895 -94 c11 -8 17 -23 14 -38 l-3 -24 -270 -3
c-148 -1 -280 0 -292 3 -28 7 -31 49 -5 64 27 16 534 14 556 -2z"/>
<path d="M12260 4492 c0 -206 3 -262 13 -271 11 -9 18 -2 33 31 16 37 19 67
19 218 0 167 -1 179 -24 224 -14 26 -28 49 -33 52 -4 3 -8 -112 -8 -254z"/>
<path d="M10510 3841 c0 -94 3 -112 21 -134 30 -40 86 -50 222 -43 172 9 187
23 187 186 l0 100 -215 0 -215 0 0 -109z"/>
<path d="M4157 5690 c-30 -63 -68 -143 -86 -177 l-31 -63 169 0 c159 0 170 1
166 18 -2 10 -39 90 -83 178 l-80 159 -55 -115z"/>
<path d="M5571 5775 l2 -96 321 3 321 3 0 90 0 90 -323 3 -323 2 2 -95z"/>
<path d="M2552 5778 l3 -93 323 -3 322 -2 0 95 0 95 -325 0 -326 0 3 -92z"/>
<path d="M9040 4310 l0 -210 210 0 210 0 0 210 0 210 -210 0 -210 0 0 -210z"/>
<path d="M3161 3545 c1 -11 -4 -36 -13 -56 -9 -20 -19 -50 -23 -68 l-7 -31 51
0 50 0 -20 58 c-11 31 -23 68 -25 82 -6 30 -17 43 -13 15z"/>
<path d="M3853 3522 c-7 -4 -14 -17 -16 -27 -2 -11 -9 -33 -15 -48 -20 -48
-16 -57 28 -57 42 0 66 24 40 40 -7 4 -10 12 -8 16 3 5 0 26 -6 46 -8 25 -15
35 -23 30z"/>
<path d="M4120 3510 l0 -60 36 0 c36 0 94 27 94 43 0 4 -5 5 -11 2 -6 -4 -5 2
3 14 19 30 -7 51 -70 56 l-52 5 0 -60z"/>
<path d="M4120 3340 l0 -70 35 0 c19 0 35 4 35 10 0 5 7 7 15 4 8 -4 26 1 40
10 19 12 24 24 23 51 -1 36 -20 61 -37 51 -5 -4 -12 -2 -16 4 -3 5 -26 10 -51
10 l-44 0 0 -70z"/>
<path d="M4454 3558 c-5 -7 -2 -8 7 -3 11 6 12 5 2 -6 -7 -7 -13 -36 -13 -65
l0 -52 38 3 c20 2 45 4 55 4 25 1 57 37 57 64 0 26 -36 61 -56 53 -7 -3 -16
-1 -19 4 -9 14 -62 12 -71 -2z"/>
<path d="M5302 3526 c3 -4 -3 -32 -13 -61 -10 -30 -19 -59 -19 -65 0 -15 80
-12 86 3 3 8 0 27 -6 43 -6 16 -10 30 -8 31 2 1 -6 9 -17 18 -11 9 -14 13 -6
9 9 -4 12 -2 9 6 -2 8 -11 16 -19 18 -8 3 -11 2 -7 -2z"/>
<path d="M5570 3490 c0 -11 4 -20 9 -20 5 0 7 9 4 20 -3 11 -7 20 -9 20 -2 0
-4 -9 -4 -20z"/>
<path d="M6791 3561 c-8 -5 -11 -26 -9 -57 l3 -49 51 0 c56 1 84 19 84 55 0
12 -6 28 -14 36 -16 16 -96 26 -115 15z"/>
<path d="M6786 3394 c-3 -9 -6 -41 -6 -71 l0 -55 58 7 c78 9 102 26 100 70 -2
47 -17 58 -88 61 -45 2 -60 -1 -64 -12z"/>
<path d="M7577 3563 c-4 -3 -7 -69 -7 -145 l0 -138 48 0 c37 0 53 6 74 25 56
51 62 166 12 220 -32 34 -108 57 -127 38z"/>
<path d="M8123 3543 c3 -13 2 -23 -2 -23 -6 0 -15 -27 -38 -112 -4 -15 3 -18
41 -18 46 0 46 0 41 29 -3 17 -10 43 -16 58 -6 15 -13 39 -16 53 -2 13 -7 27
-10 30 -3 3 -3 -5 0 -17z"/>
<path d="M8390 3500 l0 -73 52 7 c65 9 90 29 86 71 -4 43 -19 54 -82 61 l-56
7 0 -73z"/>
</g>
</svg>
